<?xml version="1.0" encoding="UTF-8"?>
<!DOCTYPE svg PUBLIC "-//W3C//DTD SVG 1.1//EN" "http://www.w3.org/Graphics/SVG/1.1/DTD/svg11.dtd">
<!-- Creator: CorelDRAW X7 -->
<svg xmlns="http://www.w3.org/2000/svg" xml:space="preserve" width="8.4545mm" height="8.4338mm" version="1.1" style="shape-rendering:geometricPrecision; text-rendering:geometricPrecision; image-rendering:optimizeQuality; fill-rule:evenodd; clip-rule:evenodd"
viewBox="0 0 844 841"
 xmlns:xlink="http://www.w3.org/1999/xlink">
 <defs>
  <style type="text/css">
   <![CDATA[
    .fil0 {fill:#FEFEFE}
    .fil1 {fill:#1F1B20}
   ]]>
  </style>
 </defs>
 <g id="Vrstva_x0020_1">
  <metadata id="CorelCorpID_0Corel-Layer"/>
  <circle class="fil0" cx="424" cy="422" r="420"/>
  <path class="fil1" d="M420 839c232,0 419,-187 419,-419 0,-232 -187,-420 -419,-420 -232,0 -420,188 -420,420 0,232 188,419 420,419zm-43 -507l11 0 0 12 -11 0 0 -12zm-7 -45l-10 0c0,-25 45,-24 45,2 0,23 -17,15 -17,32l-11 0c0,-18 5,-13 12,-23 3,-4 7,-18 -9,-18 -8,0 -4,7 -10,7zm-78 -24l0 95c0,9 11,19 20,19l14 0 0 51 34 -51c12,0 90,2 98,0 6,-3 15,-11 15,-19l0 -96c0,-9 -11,-20 -20,-20l-140 0c-11,0 -21,10 -21,21zm-107 295l0 73 158 0 0 -73c0,-34 -90,-62 -148,-19 -5,4 -10,10 -10,19zm391 -7l-3 0c-1,-5 -16,-31 -19,-31 -10,0 -29,7 -36,11 -10,5 -23,13 -23,27l0 73 158 0 0 -73c0,-26 -42,-35 -61,-40 -3,7 -15,28 -16,33zm-182 -320l53 0c22,0 37,15 37,36l0 77c35,0 22,-8 53,37l9 13 0 -50 8 0c9,0 20,-11 20,-20l0 -96c0,-9 -11,-20 -20,-20l-141 0c-8,0 -19,9 -19,23zm129 221c0,11 0,16 5,27 23,48 97,31 97,-20 0,-32 -19,-52 -51,-54 -25,-1 -51,22 -51,47zm-310 0c0,16 3,29 15,41 26,26 87,18 87,-41 0,-13 -9,-27 -16,-33 -9,-9 -19,-13 -36,-14 -24,-1 -50,22 -50,47z"/>
 </g>
</svg>
