<?xml version="1.0" encoding="utf-8"?>
<!-- Generator: Adobe Illustrator 21.1.0, SVG Export Plug-In . SVG Version: 6.00 Build 0)  -->
<svg version="1.1" id="Layer_1" xmlns="http://www.w3.org/2000/svg" xmlns:xlink="http://www.w3.org/1999/xlink" x="0px" y="0px"
	 viewBox="0 0 128 40" style="enable-background:new 0 0 128 40;" xml:space="preserve">
<style type="text/css">
	.st0{fill:none;enable-background:new    ;}
	.st1{fill:#20D7BE;}
</style>
<image style="display:none;overflow:visible;" width="128" height="40" xlink:href="61AE2EF9A897034D.png"  transform="matrix(1 0 0 1 0 -4.882813e-05)">
</image>
<path class="st0" d="z"/>
<g>
	<path d="M33.2,9.1c-1.6,0-2.7,1.3-2.7,3.3c0,2,1.1,3.3,2.7,3.3c1.2,0,2.1-0.5,2.6-1.5l3.3,1.9c-1.1,2.1-3.3,3.2-6.1,3.2
		c-4.2,0-6.9-2.7-6.9-6.8c0-4.2,2.8-6.9,7-6.9c2.7,0,4.9,1.2,6,3.2l-3.2,1.9C35.3,9.6,34.4,9.1,33.2,9.1z"/>
	<path d="M54.4,12.3c0,4.2-2.9,6.9-7.4,6.9s-7.3-2.7-7.3-6.9c0-4.1,2.9-6.9,7.3-6.9S54.4,8.2,54.4,12.3z M44.2,12.4
		c0,2,1.2,3.3,2.9,3.3c1.7,0,2.9-1.3,2.9-3.3c0-2-1.2-3.4-2.9-3.4C45.3,9,44.2,10.4,44.2,12.4z"/>
	<path d="M70.3,0.6v18.5h-4.4v-1.7c-0.9,1.2-2.3,1.9-4,1.9c-3.8,0-6.3-2.8-6.3-7c0-4.1,2.5-6.8,6.2-6.8c1.7,0,3.1,0.7,4.1,1.9V0.6
		H70.3z M65.8,12.4c0-2-1.2-3.4-2.9-3.4c-1.7,0-2.9,1.4-2.9,3.4s1.2,3.4,2.9,3.4C64.7,15.7,65.8,14.4,65.8,12.4z"/>
	<path d="M86.5,13.5h-9.4c0.4,1.5,1.5,2.4,3.1,2.4c1.1,0,2.3-0.5,3.2-1.4l2.3,2.3c-1.4,1.5-3.4,2.4-5.9,2.4c-4.4,0-7.1-2.7-7.1-6.8
		c0-4.2,2.8-6.9,7-6.9C84.4,5.4,86.8,8.6,86.5,13.5z M82.2,11.1c0-1.5-1-2.6-2.5-2.6c-1.4,0-2.4,1-2.7,2.6H82.2z"/>
</g>
<g>
	<path d="M41.5,32.9c0,3.9-2.5,6.6-6.2,6.6c-2.3,0-4.1-1.1-5.1-2.9v2.8h-1.9V21h1.9v8.2c1-1.8,2.8-2.9,5-2.9
		C38.9,26.3,41.5,29,41.5,32.9z M39.6,32.9c0-2.8-1.9-4.9-4.7-4.9c-2.8,0-4.7,2.1-4.7,4.9c0,2.9,1.9,4.9,4.7,4.9
		C37.6,37.8,39.6,35.7,39.6,32.9z"/>
	<path d="M50.6,26.3v1.9c-2.8,0-4.5,1.7-4.7,4.3v7h-1.9V26.3h1.9v2.9C46.7,27.3,48.4,26.3,50.6,26.3z"/>
	<path d="M65.1,32.9c0,3.9-2.8,6.6-6.6,6.6c-3.9,0-6.6-2.7-6.6-6.6c0-3.9,2.8-6.6,6.6-6.6C62.4,26.3,65.1,29,65.1,32.9z M53.8,32.9
		c0,2.9,2,4.9,4.7,4.9s4.7-2,4.7-4.9c0-2.9-2-4.9-4.7-4.9S53.8,30,53.8,32.9z"/>
	<path d="M75.3,38.5c-0.9,0.6-1.9,1-3,1c-1.9,0-3.3-1.1-3.3-3.7v-7.5h-1.9v-1.5H69v-3.4h1.9v3.4h4.2v1.5h-4.2v7.2
		c0,1.6,0.6,2.2,1.7,2.2c0.7,0,1.4-0.2,2.1-0.7L75.3,38.5z"/>
	<path d="M90.4,31.4v8.1h-1.9v-7.6c0-2.3-1.4-3.7-3.7-3.7c-2.8,0-4.4,2-4.4,4.9v6.4h-1.9V21h1.9v8.3c0.9-2,2.7-3,5.1-3
		C88.6,26.3,90.4,28.2,90.4,31.4z"/>
	<path d="M106,33.6H95.3c0.3,2.6,2.2,4.3,4.8,4.3c1.6,0,3-0.6,4.1-1.7l1.1,1.1c-1.2,1.4-3.1,2.2-5.3,2.2c-3.9,0-6.5-2.7-6.5-6.6
		c0-3.9,2.7-6.6,6.5-6.6C104.1,26.3,106.2,29.2,106,33.6z M104.3,32.1c-0.1-2.5-1.8-4.2-4.4-4.2c-2.5,0-4.3,1.6-4.6,4.2H104.3z"/>
	<path d="M116,26.3v1.9c-2.8,0-4.5,1.7-4.7,4.3v7h-1.9V26.3h1.9v2.9C112.2,27.3,113.8,26.3,116,26.3z"/>
	<path d="M122,27.9c-1.5,0-2.6,0.5-2.6,1.8c0,3,7.3,1.4,7.3,6.1c0,2.6-2.3,3.7-4.8,3.7c-1.9,0-3.8-0.6-5-1.8l0.7-1.4
		c1.1,1,2.8,1.7,4.4,1.7s2.8-0.6,2.8-1.9c0.1-3.2-7.3-1.6-7.2-6.2c0-2.5,2.2-3.6,4.6-3.6c1.6,0,3.1,0.5,4.2,1.2l-0.7,1.5
		C124.5,28.3,123.2,27.9,122,27.9z"/>
</g>
<g>
	<path class="st1" d="M1.3,26.6v-8.3L22.2,5.4V14L7.6,22.4l14.6,8.4v8.7L1.3,26.6z"/>
</g>
</svg>
