<?xml version="1.0" encoding="UTF-8"?>
<!DOCTYPE svg PUBLIC "-//W3C//DTD SVG 1.1//EN" "http://www.w3.org/Graphics/SVG/1.1/DTD/svg11.dtd">
<!-- Creator: CorelDRAW X7 -->
<svg xmlns="http://www.w3.org/2000/svg" xml:space="preserve" width="8.4998mm" height="8.4284mm" version="1.1" style="shape-rendering:geometricPrecision; text-rendering:geometricPrecision; image-rendering:optimizeQuality; fill-rule:evenodd; clip-rule:evenodd"
viewBox="0 0 851 843"
 xmlns:xlink="http://www.w3.org/1999/xlink">
 <defs>
  <style type="text/css">
   <![CDATA[
    .fil1 {fill:#FEFEFE}
    .fil0 {fill:black}
    .fil2 {fill:white}
   ]]>
  </style>
 </defs>
 <g id="Vrstva_x0020_1">
  <metadata id="CorelCorpID_0Corel-Layer"/>
  <path class="fil0" d="M569 207c-17,-56 -69,-121 -125,-132l0 145 125 -13z"/>
  <path class="fil0" d="M407 75c-56,10 -108,77 -125,132l125 12 0 -144z"/>
  <path class="fil0" d="M444 767c60,-11 100,-74 124,-128 -19,-11 -103,-13 -124,-16l0 144z"/>
  <path class="fil0" d="M283 639c21,52 66,117 124,128l0 -144c-22,3 -43,3 -65,5 -10,1 -22,2 -33,4l-26 7z"/>
  <path class="fil0" d="M242 196c4,-4 1,0 6,-8l3 -6c2,-4 4,-9 6,-14 13,-28 31,-48 46,-72 -35,8 -71,32 -97,54 -17,13 -19,10 -25,24 14,9 43,18 61,22z"/>
  <path class="fil0" d="M545 747c31,-6 76,-35 100,-55 16,-14 18,-11 25,-24 -15,-10 -47,-19 -66,-22 -7,28 -46,92 -59,101z"/>
  <path class="fil0" d="M544 94c14,11 53,74 60,102 19,-3 51,-13 66,-22 -13,-25 -95,-73 -126,-80z"/>
  <path class="fil0" d="M181 668c12,24 90,70 121,78 -12,-18 -21,-28 -32,-48 -10,-16 -17,-36 -28,-53l-61 23z"/>
  <ellipse class="fil1" cx="419" cy="423" rx="381" ry="373"/>
  <path class="fil0" d="M764 522c0,25 -34,82 -46,100 -149,208 -447,202 -588,-2 -12,-17 -45,-74 -46,-98l33 0c11,15 26,70 57,97l72 -23c-5,-24 -15,-49 -15,-74l32 0 16 65c45,-7 82,-13 128,-14l2 -51 32 0 0 51c47,1 84,7 129,13l16 -64 32 0c0,25 -11,50 -15,72l72 25c32,-29 46,-82 57,-97l32 0zm-230 199c29,-6 70,-32 92,-51 15,-13 17,-10 23,-22 -13,-9 -43,-18 -60,-20 -7,26 -43,84 -55,93zm-277 -507c3,-3 0,0 4,-7l3 -5c2,-4 4,-9 6,-13 12,-26 28,-44 42,-66 -32,7 -65,29 -89,49 -16,13 -17,10 -23,22 13,9 39,17 57,20zm150 -111c-51,10 -99,71 -114,122l114 11 0 -133zm149 121c-15,-51 -63,-110 -115,-121l1 134 114 -13zm-22 -103c12,10 48,68 55,93 17,-2 47,-11 60,-20 -12,-22 -87,-66 -115,-73zm-334 527c11,22 82,64 111,72 -10,-17 -19,-26 -30,-44 -8,-15 -15,-34 -25,-49l-56 21zm94 -26c19,47 60,107 113,117l0 -132c-20,2 -39,2 -59,4 -10,1 -20,2 -30,4l-24 7zm147 117c56,-11 93,-68 114,-117 -17,-11 -94,-13 -114,-15l0 132zm18 -250l-35 -99 -34 99 -38 0 -39 -136 33 0c9,19 15,57 23,78 4,8 3,6 6,8l30 -86 40 0 30 90c0,-1 1,-2 1,-3 11,-21 17,-61 27,-87l35 1 -42 135 -37 0zm173 0l-36 0c-6,-11 -40,-122 -41,-136l34 0 27 90 33 -90 40 1 31 91c6,-21 12,-41 17,-62 10,-36 2,-30 44,-29l-43 135 -36 1 -34 -97c-17,22 -23,68 -36,96zm-523 1l-40 -137 34 0 25 90c13,-17 22,-68 34,-90l40 0 31 92c35,-98 5,-92 61,-91l-42 135 -36 0 -36 -96 -34 96 -37 1zm-25 -170c3,-54 74,-140 120,-177 157,-126 394,-94 515,79 13,19 43,72 45,98l-32 0c-11,-14 -26,-70 -57,-97l-72 24c5,24 15,48 15,74l-32 -1 -16 -63 -128 12 -2 51 -32 1 -1 -52c-47,-1 -83,-7 -128,-13l-16 64 -32 1c0,-26 10,-50 15,-73l-72 -25c-32,28 -46,82 -57,97l-33 0zm-84 104c0,233 210,419 425,419 244,0 426,-195 426,-422 0,-210 -166,-419 -426,-421 -229,-2 -425,203 -425,424z"/>
  <path class="fil2" d="M596 489l36 0c13,-28 19,-74 36,-96l34 97 36 -1 43 -135c-42,-1 -34,-7 -44,29 -5,21 -11,41 -17,62l-31 -91 -40 -1 -33 90 -27 -90 -34 0c1,14 35,125 41,136zm-154 -252l-1 -134c52,11 100,70 115,121l-114 13zm-35 -134l0 133 -114 -11c15,-51 63,-112 114,-122zm-150 111c-18,-3 -44,-11 -57,-20 6,-12 7,-9 23,-22 24,-20 57,-42 89,-49 -14,22 -30,40 -42,66 -2,4 -4,9 -6,13l-3 5c-4,7 -1,4 -4,7zm277 -93c28,7 103,51 115,73 -13,9 -43,18 -60,20 -7,-25 -43,-83 -55,-93zm-450 199l33 0c11,-15 25,-69 57,-97l72 25c-5,23 -15,47 -15,73l32 -1 16 -64c45,6 81,12 128,13l1 52 32 -1 2 -51 128 -12 16 63 32 1c0,-26 -10,-50 -15,-74l72 -24c31,27 46,83 57,97l32 0c-2,-26 -32,-79 -45,-98 -121,-173 -358,-205 -515,-79 -46,37 -117,123 -120,177zm25 170l37 -1 34 -96 36 96 36 0 42 -135c-56,-1 -26,-7 -61,91l-31 -92 -40 0c-12,22 -21,73 -34,90l-25 -90 -34 0 40 137zm425 231c12,-9 48,-67 55,-93 17,2 47,11 60,20 -6,12 -8,9 -23,22 -22,19 -63,45 -92,51zm-334 -73l56 -21c10,15 17,34 25,49 11,18 20,27 30,44 -29,-8 -100,-50 -111,-72zm241 91l0 -132c20,2 97,4 114,15 -21,49 -58,106 -114,117zm-147 -117l24 -7c10,-2 20,-3 30,-4 20,-2 39,-2 59,-4l0 132c-53,-10 -94,-70 -113,-117zm470 -100l-32 0c-11,15 -25,68 -57,97l-72 -25c4,-22 15,-47 15,-72l-32 0 -16 64c-45,-6 -82,-12 -129,-13l0 -51 -32 0 -2 51c-46,1 -83,7 -128,14l-16 -65 -32 0c0,25 10,50 15,74l-72 23c-31,-27 -46,-82 -57,-97l-33 0c1,24 34,81 46,98 141,204 439,210 588,2 12,-18 46,-75 46,-100zm-412 -33l38 0 34 -99 35 99 37 0 42 -135 -35 -1c-10,26 -16,66 -27,87 0,1 -1,2 -1,3l-30 -90 -40 0 -30 86c-3,-2 -2,0 -6,-8 -8,-21 -14,-59 -23,-78l-33 0 39 136z"/>
 </g>
</svg>
