<?xml version="1.0" encoding="UTF-8"?>
<!DOCTYPE svg PUBLIC "-//W3C//DTD SVG 1.1//EN" "http://www.w3.org/Graphics/SVG/1.1/DTD/svg11.dtd">
<!-- Creator: CorelDRAW X7 -->
<svg xmlns="http://www.w3.org/2000/svg" xml:space="preserve" width="8.4538mm" height="8.4331mm" version="1.1" style="shape-rendering:geometricPrecision; text-rendering:geometricPrecision; image-rendering:optimizeQuality; fill-rule:evenodd; clip-rule:evenodd"
viewBox="0 0 841 839"
 xmlns:xlink="http://www.w3.org/1999/xlink">
 <defs>
  <style type="text/css">
   <![CDATA[
    .fil0 {fill:#FEFEFE}
    .fil1 {fill:#1F1B20}
   ]]>
  </style>
 </defs>
 <g id="Vrstva_x0020_1">
  <metadata id="CorelCorpID_0Corel-Layer"/>
  <circle class="fil0" cx="423" cy="421" r="419"/>
  <path class="fil1" d="M235 489l14 0c17,0 31,15 31,34 0,6 -2,7 -2,12 19,0 30,-1 40,17 8,11 4,25 3,35 55,-13 67,57 14,78 -25,9 -50,-1 -50,-20 0,-14 1,-18 8,-32 -3,0 -53,20 -53,-21 0,-6 5,-19 7,-24 -10,0 -16,4 -24,5 -8,0 -16,-4 -20,-9 -15,-19 -1,-30 -1,-44 -47,23 -65,-28 -34,-62 24,-28 62,-20 67,12 2,11 0,9 0,19zm118 -142c-39,0 -49,-44 -29,-66 7,-8 92,-56 108,-66 17,-10 74,-47 93,-45 16,2 42,24 53,35 4,4 5,4 9,8l37 33c30,27 106,-13 138,-13l0 208c-19,0 -47,12 -79,12 -25,0 -40,-22 -54,-36l-90 -91c-8,-8 -13,-15 -21,-24 -32,-32 -56,-9 -99,14 -6,3 -10,5 -16,8 -5,3 -10,5 -16,8 -9,5 -21,15 -34,15zm-8 31c27,0 50,-15 73,-26 63,-32 62,-21 99,16 10,11 19,20 30,31l53 55c3,3 3,4 7,8 9,9 39,30 17,57 -10,13 -29,13 -44,-1l-32 -33c-3,-3 -13,-16 -18,-12 -3,4 0,8 2,10 3,4 5,6 8,10 5,6 11,10 16,16 14,15 26,25 26,42 0,19 -25,39 -48,21 -5,-4 -16,-15 -20,-20 -4,-5 -31,-33 -38,-37 -1,-1 -2,-5 -5,0 -3,7 33,41 38,47 3,5 16,15 16,27 0,22 -27,57 -67,5 -4,-6 -26,-29 -32,-34 -9,-7 -12,1 -3,12 17,17 42,39 42,56 0,19 -12,29 -31,29 -19,0 -22,-16 -34,-24 7,-32 -13,-64 -37,-75 -20,-9 -1,-3 -21,-30 -13,-17 -19,-16 -29,-22 -10,-7 -1,-2 -9,-17 -5,-8 -18,-21 -26,-26 -10,-5 -10,0 -14,-11 -21,-55 -90,-56 -123,-14 -6,8 -7,13 -11,22 -11,-3 -24,-11 -36,-12l0 -239c9,2 14,5 22,8 50,17 73,35 116,6l51 -29c16,-8 45,-21 62,-21 21,0 54,10 58,26 -6,1 -23,12 -29,16l-55 34c-9,6 -17,12 -23,22 -11,18 -15,48 -3,69 6,10 11,18 20,25 8,5 20,13 32,13zm-345 25l0 31c0,66 26,146 56,195 7,11 12,20 20,31l33 42c14,16 36,34 53,48 25,20 48,33 78,48 38,19 107,39 163,39l33 0c76,0 171,-34 226,-76l28 -21c49,-40 82,-87 110,-143 59,-117 51,-277 -17,-388 -18,-30 -25,-41 -47,-66 -24,-27 -30,-32 -58,-55 -61,-49 -158,-88 -242,-88l-33 0c-76,0 -171,35 -226,76 -65,49 -99,87 -138,164 -19,39 -39,106 -39,163z"/>
 </g>
</svg>
